<?xml version="1.0" standalone="no"?>
<!DOCTYPE svg PUBLIC "-//W3C//DTD SVG 20010904//EN"
 "http://www.w3.org/TR/2001/REC-SVG-20010904/DTD/svg10.dtd">
<svg version="1.0" xmlns="http://www.w3.org/2000/svg"
 width="2175.000000pt" height="2052.000000pt" viewBox="0 0 2175.000000 2052.000000"
 preserveAspectRatio="xMidYMid meet">

<g transform="translate(0.000000,2052.000000) scale(0.100000,-0.100000)"
fill="#000000" stroke="none">
<path d="M6780 18482 c0 -40 0 -41 54 -56 36 -11 63 -26 80 -47 l26 -31 0
-261 c-1 -341 -4 -357 -90 -371 -39 -6 -40 -8 -40 -44 l0 -39 153 1 c83 1 164
-2 180 -7 27 -7 27 -7 27 38 0 41 -2 45 -27 51 -59 12 -82 26 -92 56 -6 18
-11 106 -10 207 l0 176 135 -270 c132 -265 135 -270 167 -273 31 -3 33 -1 56
65 23 67 217 489 233 507 14 17 10 -395 -5 -424 -8 -17 -28 -30 -60 -39 -46
-14 -47 -15 -47 -56 l0 -41 78 9 c74 8 287 2 317 -9 12 -5 15 3 15 39 l0 45
-50 12 c-82 20 -80 11 -80 362 l0 308 23 14 c12 8 41 17 65 21 41 7 42 8 42
46 l0 40 -131 -3 -131 -3 -134 -285 c-74 -157 -140 -298 -148 -315 -13 -30
-14 -29 -172 288 l-159 317 -106 0 c-59 0 -121 3 -138 6 -31 6 -31 6 -31 -34z"/>
<path d="M8433 18503 c-2 -6 -3 -24 -1 -39 3 -24 9 -29 56 -40 30 -6 59 -17
65 -23 8 -8 14 -92 17 -274 l5 -262 33 -67 c52 -105 145 -160 294 -174 179
-16 322 56 386 195 25 54 26 66 33 299 8 265 12 286 67 298 62 14 62 14 62 57
l0 42 -180 0 -180 0 0 -42 c0 -38 3 -43 28 -48 15 -4 41 -12 59 -20 28 -13 32
-19 38 -69 10 -81 -1 -394 -15 -441 -7 -23 -32 -59 -59 -86 -36 -37 -57 -49
-99 -58 -69 -14 -88 -14 -150 4 -65 20 -109 57 -136 115 -19 41 -21 67 -24
273 -4 257 -3 261 67 272 96 16 91 13 91 58 l0 42 -106 -6 c-59 -4 -161 -4
-227 0 -87 4 -121 3 -124 -6z"/>
<path d="M11252 18475 c3 -38 4 -40 47 -47 79 -13 76 0 79 -353 3 -356 5 -346
-76 -359 -41 -6 -42 -8 -42 -44 l0 -37 333 -3 332 -2 23 107 c12 60 22 114 22
121 0 8 -16 12 -45 12 -36 0 -45 -3 -45 -17 0 -10 -9 -37 -19 -60 -16 -35 -26
-44 -60 -53 -53 -14 -178 -15 -214 -1 -39 15 -47 46 -47 183 l0 121 80 -6 c44
-4 89 -11 99 -17 11 -5 27 -30 36 -55 20 -50 19 -50 64 -34 29 10 32 15 26 38
-16 61 -24 150 -18 203 l6 58 -41 0 c-38 0 -41 -3 -52 -36 -15 -44 -39 -54
-131 -54 l-69 0 0 135 0 135 104 0 c97 0 107 -2 134 -25 17 -15 34 -43 42 -70
12 -43 14 -45 51 -45 l39 0 0 123 0 122 -330 0 -331 0 3 -40z"/>
<path d="M12530 18474 l0 -42 46 -7 c82 -12 81 -8 87 -296 5 -284 11 -315 73
-388 48 -56 108 -89 195 -107 199 -43 377 30 448 181 26 55 28 77 40 367 5
134 11 201 20 212 7 8 31 19 54 23 41 8 42 10 45 51 l3 42 -165 0 c-90 0 -171
3 -180 6 -13 5 -16 -2 -16 -39 0 -49 0 -48 68 -62 60 -12 64 -28 60 -272 -3
-206 -4 -221 -27 -272 -44 -97 -150 -146 -268 -122 -82 16 -125 49 -160 118
-28 58 -28 60 -31 273 -2 162 0 221 10 240 13 24 36 33 111 45 36 6 37 7 37
47 l0 41 -112 -5 c-62 -3 -164 -2 -226 1 l-112 6 0 -41z"/>
<path d="M14060 18482 c0 -40 0 -41 54 -56 36 -11 63 -26 80 -47 l26 -31 0
-261 c-1 -341 -4 -357 -90 -371 -39 -6 -40 -8 -40 -44 l0 -39 153 1 c83 1 165
-3 180 -7 l28 -8 -3 48 c-3 43 -6 48 -28 51 -92 11 -102 37 -98 269 l3 168
132 -270 c131 -266 133 -270 165 -273 32 -3 34 -1 55 61 22 62 224 501 237
514 8 9 6 -396 -3 -427 -5 -20 -18 -28 -59 -40 -52 -15 -52 -15 -52 -55 l0
-41 78 9 c74 8 287 2 317 -9 12 -5 15 3 15 39 l0 45 -50 12 c-82 20 -80 11
-80 362 l0 308 23 14 c12 8 41 17 65 21 41 7 42 8 42 46 l0 40 -131 -3 -131
-3 -134 -285 c-74 -157 -140 -298 -148 -315 -13 -30 -14 -29 -172 288 l-159
317 -106 0 c-59 0 -121 3 -138 6 -31 6 -31 6 -31 -34z"/>
<path d="M10254 18484 c-119 -42 -196 -176 -165 -289 22 -84 88 -144 223 -202
126 -54 157 -85 158 -154 1 -109 -140 -175 -245 -116 -31 17 -47 36 -70 84
-29 60 -32 63 -66 63 l-36 0 2 -102 2 -103 69 -24 c257 -88 495 23 496 233 1
126 -55 191 -226 262 -148 61 -190 118 -150 201 59 120 223 105 256 -24 10
-42 12 -43 50 -43 l40 0 -7 93 c-4 50 -10 95 -14 99 -3 4 -33 14 -66 22 -73
20 -196 19 -251 0z"/>
<path d="M7984 15898 c-53 -104 -137 -178 -202 -178 -35 0 -38 -9 -21 -57 9
-27 -4 -69 -130 -404 -266 -715 -310 -821 -367 -889 -30 -35 -114 -80 -151
-80 -46 0 -53 -9 -53 -69 l0 -56 348 0 347 1 0 59 0 60 -63 7 c-121 13 -187
47 -197 101 -7 34 40 190 103 342 l29 70 238 0 238 0 58 -160 c32 -88 61 -179
65 -203 14 -92 -34 -129 -208 -157 l-38 -6 0 -53 0 -54 420 1 420 0 0 57 0 56
-59 12 c-89 18 -119 44 -169 142 -42 85 -340 861 -487 1273 -48 134 -83 217
-91 217 -8 0 -21 -15 -30 -32z m-33 -696 l86 -227 -170 -3 c-93 -1 -172 -1
-174 2 -5 5 160 456 167 456 3 0 44 -103 91 -228z"/>
<path d="M2090 15763 l0 -60 43 -7 c78 -12 135 -37 165 -70 53 -60 57 -112 57
-681 0 -457 -2 -514 -17 -547 -22 -49 -65 -74 -160 -95 l-78 -16 0 -64 0 -64
88 8 c108 10 573 10 705 1 l97 -7 0 59 c0 54 -2 60 -22 64 -259 54 -256 49
-269 346 -10 236 -11 786 -2 933 l6 107 67 0 c153 0 269 -69 326 -192 24 -55
28 -75 28 -153 0 -70 -5 -103 -22 -146 -42 -104 -141 -181 -270 -211 l-53 -11
3 -51 3 -51 100 3 c211 8 352 57 455 161 168 171 170 450 5 616 -57 57 -138
103 -240 136 -66 21 -92 23 -495 30 -234 4 -446 11 -472 15 l-48 7 0 -60z"/>
<path d="M4545 15807 c-4 -8 -5 -34 -3 -58 l3 -42 87 -22 c106 -25 149 -60
168 -134 17 -66 27 -1034 11 -1115 -17 -91 -60 -125 -188 -151 -32 -6 -33 -8
-33 -59 l0 -52 308 0 c169 1 440 -3 602 -8 162 -5 311 -6 331 -2 36 6 37 8 99
154 34 81 79 180 101 221 21 41 36 78 33 83 -3 4 -32 8 -64 8 l-59 0 -42 -62
c-92 -139 -195 -219 -318 -248 -60 -14 -231 -9 -293 10 -49 14 -97 56 -116
100 -27 65 -42 702 -23 1000 12 187 30 213 173 249 l73 19 0 51 0 52 -380 3
c-209 2 -399 7 -422 11 -34 6 -44 4 -48 -8z"/>
<path d="M15830 15762 c0 -69 -10 -61 100 -82 111 -21 148 -67 171 -211 18
-112 18 -990 1 -1048 -21 -67 -65 -106 -137 -120 -117 -23 -106 -15 -103 -79
l3 -57 85 5 c131 8 480 6 628 -3 l132 -8 0 59 0 59 -62 13 c-125 24 -168 68
-187 191 -15 95 -16 1001 -2 1064 20 82 55 110 171 135 l75 16 0 54 0 54 -385
1 c-212 1 -409 5 -437 9 l-53 9 0 -61z"/>
<path d="M9840 15754 c0 -56 8 -64 59 -64 52 0 147 -31 214 -71 l67 -40 0
-552 c0 -344 -4 -569 -11 -597 -6 -25 -20 -55 -31 -67 -24 -26 -103 -57 -168
-68 -83 -12 -81 -11 -78 -72 l3 -55 388 -2 387 -1 0 56 0 55 -77 12 c-107 17
-182 55 -208 107 -17 36 -20 73 -27 410 -5 204 -7 420 -6 482 l3 112 235 -256
c336 -366 707 -779 818 -910 53 -62 100 -113 104 -113 5 0 26 9 47 20 l39 19
6 263 c4 145 10 450 15 678 6 241 14 430 20 451 21 68 84 108 205 130 l67 11
-3 55 -3 55 -363 1 -362 2 0 -56 0 -56 78 -16 c91 -20 135 -44 158 -89 24 -47
33 -195 33 -573 l1 -330 -48 55 c-26 30 -149 165 -273 300 -287 310 -489 538
-590 663 l-79 98 -310 2 -310 3 0 -52z"/>
<path d="M12966 15798 c-3 -7 -7 -49 -10 -93 -4 -44 -17 -133 -30 -197 -12
-65 -20 -120 -18 -123 3 -3 29 -5 58 -5 l52 0 44 82 c64 120 64 121 329 132
119 5 224 6 233 3 16 -6 17 -48 14 -584 -3 -555 -4 -580 -23 -618 -27 -53 -71
-81 -155 -96 l-70 -12 0 -64 0 -63 58 7 c67 8 506 10 672 3 l115 -5 0 55 0 55
-67 16 c-93 23 -129 46 -156 101 -36 72 -43 196 -40 723 l3 480 210 0 c228 0
263 -7 284 -51 6 -14 11 -39 11 -57 0 -18 3 -49 6 -70 l7 -38 55 3 55 3 19
109 c10 60 29 153 43 208 14 54 25 101 25 103 0 3 -28 5 -62 5 -55 0 -65 -3
-83 -27 -16 -20 -35 -28 -76 -34 -77 -12 -1189 -22 -1279 -12 -72 8 -76 9 -90
40 -14 31 -18 33 -73 33 -37 0 -59 -4 -61 -12z"/>
<path d="M17880 15753 c0 -59 -10 -52 108 -72 58 -9 161 -53 207 -87 20 -15
20 -27 20 -592 0 -561 -1 -578 -20 -612 -24 -42 -84 -75 -164 -90 -111 -21
-101 -14 -101 -78 l0 -57 390 0 390 0 0 56 0 57 -57 7 c-84 10 -176 41 -200
67 -43 48 -47 67 -54 293 -8 244 -11 745 -5 745 14 0 826 -891 1050 -1152 55
-65 104 -118 109 -118 4 0 25 9 46 20 l39 19 6 328 c18 901 23 1037 38 1073
28 67 78 95 223 126 l40 9 0 53 0 54 -363 1 -362 2 0 -56 0 -56 78 -16 c92
-20 135 -44 158 -89 23 -43 35 -360 27 -671 l-6 -218 -46 53 c-25 29 -100 111
-166 182 -329 354 -648 712 -728 819 l-36 48 -311 2 -310 3 0 -53z"/>
<path d="M10707 12814 c-4 -4 -7 -31 -7 -60 l0 -53 43 -11 c128 -33 173 -61
195 -120 6 -15 11 -263 13 -580 4 -604 4 -607 -51 -653 -16 -14 -60 -32 -99
-42 l-71 -17 0 -57 0 -56 660 -3 659 -3 5 23 c24 132 69 355 73 365 4 10 -9
13 -51 13 l-56 0 -35 -74 c-40 -85 -71 -115 -152 -147 -52 -21 -75 -23 -223
-24 -196 0 -238 13 -287 86 l-28 42 -3 250 -3 249 168 -4 c116 -3 176 -8 196
-18 34 -17 81 -86 102 -151 10 -29 23 -49 31 -49 18 0 94 38 94 47 0 3 -7 42
-16 87 -13 62 -16 116 -12 238 l5 158 -56 0 -56 0 -17 -48 c-34 -95 -82 -112
-310 -112 l-128 0 0 285 0 285 158 0 c187 0 281 -12 335 -43 51 -28 72 -57
101 -138 l24 -64 51 -3 51 -3 0 195 0 194 -627 5 c-346 2 -637 7 -648 11 -11
4 -24 4 -28 0z"/>
<path d="M2057 12804 c-4 -4 -7 -31 -7 -60 l0 -53 58 -11 c141 -28 182 -55
234 -153 l23 -42 -3 -519 c-1 -298 -6 -535 -12 -556 -15 -57 -50 -82 -148
-105 l-87 -22 -3 -59 -3 -59 263 0 c145 0 301 -2 348 -5 l85 -5 3 62 c3 69 11
63 -101 83 -84 15 -127 43 -147 95 -21 58 -28 780 -7 750 27 -38 358 -666 444
-840 l86 -175 57 0 57 0 28 78 c15 42 53 136 85 207 63 140 387 816 396 825
12 11 -3 -785 -16 -827 -18 -61 -55 -91 -139 -111 l-72 -17 3 -65 c2 -38 7
-64 13 -63 6 1 87 7 180 14 159 11 437 3 583 -17 l42 -6 0 65 0 65 -50 7 c-28
4 -74 19 -103 33 -46 24 -55 33 -77 87 l-25 60 0 540 c0 504 1 542 18 577 25
49 52 65 153 91 l84 22 0 59 0 58 -87 -7 c-49 -4 -166 -10 -262 -14 l-173 -6
-98 -210 c-127 -273 -458 -966 -465 -973 -7 -7 1 -22 -128 228 -63 124 -177
342 -252 485 -75 143 -160 308 -188 366 l-51 106 -254 7 c-140 4 -259 9 -266
12 -7 3 -15 1 -19 -2z"/>
<path d="M7985 12797 c-4 -8 -5 -34 -3 -58 l3 -44 58 -11 c32 -7 71 -17 87
-24 42 -17 87 -72 100 -121 20 -75 30 -268 30 -619 0 -466 -12 -559 -73 -591
-12 -7 -60 -22 -107 -33 l-85 -21 0 -60 0 -60 70 5 c39 3 238 5 443 4 l372 -1
0 57 0 57 -57 6 c-86 10 -130 25 -168 58 -46 41 -56 93 -62 337 l-6 202 61 0
c54 0 66 -4 95 -29 18 -16 57 -69 86 -118 118 -195 246 -378 311 -447 80 -84
140 -117 252 -140 78 -16 295 -22 357 -10 30 6 31 8 31 60 l0 53 -57 7 c-194
23 -311 139 -574 571 -49 81 -86 150 -82 153 5 4 31 15 58 25 100 37 168 94
213 179 24 46 27 62 27 156 0 94 -3 111 -27 163 -69 147 -188 229 -394 272
-62 13 -157 17 -469 19 -214 2 -411 7 -437 11 -38 6 -49 5 -53 -8z m840 -158
c43 -16 76 -38 116 -78 71 -71 94 -132 93 -246 0 -97 -22 -151 -85 -213 -60
-59 -130 -83 -256 -90 l-103 -5 0 333 0 333 88 -6 c53 -3 110 -14 147 -28z"/>
<path d="M13146 12788 c-3 -13 -8 -57 -11 -98 -4 -41 -15 -120 -26 -175 -27
-143 -29 -135 40 -135 l59 0 22 53 c12 28 34 67 47 86 44 57 73 64 321 69
l223 5 -3 -584 c-3 -523 -5 -588 -20 -621 -21 -48 -64 -74 -155 -94 l-73 -16
0 -57 0 -56 425 0 426 0 -3 54 -3 54 -61 13 c-110 22 -157 60 -182 146 -13 44
-16 147 -20 606 l-4 553 232 -3 232 -3 24 -28 c16 -19 24 -41 24 -65 0 -20 3
-54 6 -74 l7 -38 56 0 56 0 18 110 c10 61 29 154 42 207 14 52 22 100 19 104
-3 5 -30 9 -60 9 -48 0 -57 -3 -83 -32 -28 -31 -31 -32 -142 -39 -63 -4 -374
-8 -691 -8 -565 -1 -578 -1 -598 19 -11 11 -20 29 -20 40 0 18 -7 20 -60 20
-54 0 -60 -2 -64 -22z"/>
<path d="M15720 12746 l0 -63 51 -7 c115 -15 169 -58 189 -148 7 -33 15 -221
19 -503 9 -483 10 -495 64 -588 14 -24 56 -72 94 -108 125 -118 283 -175 513
-186 282 -13 503 73 634 248 106 141 114 183 126 669 6 217 12 418 15 446 11
97 61 139 200 167 l70 14 0 58 0 59 -65 -5 c-36 -2 -199 -3 -362 -2 l-298 1 0
-54 c0 -50 2 -54 28 -60 162 -36 185 -47 217 -110 19 -37 20 -62 23 -432 4
-422 -2 -500 -43 -589 -34 -75 -105 -147 -186 -187 -92 -46 -162 -59 -285 -54
-129 6 -207 39 -293 125 -110 111 -124 194 -119 728 3 347 4 372 23 409 30 60
60 76 176 95 l104 17 0 59 0 60 -65 -5 c-100 -8 -665 -6 -752 2 l-78 8 0 -64z"/>
<path d="M5930 12775 c-416 -89 -683 -411 -683 -825 1 -334 164 -593 466 -736
115 -54 213 -76 372 -81 164 -6 279 13 409 67 406 169 609 619 472 1045 -80
251 -292 442 -571 516 -103 28 -365 36 -465 14z m313 -125 c126 -39 236 -144
308 -295 58 -120 80 -217 86 -375 4 -111 1 -153 -16 -235 -42 -207 -160 -378
-307 -447 -94 -44 -210 -51 -308 -18 -229 76 -380 340 -393 690 -4 112 -1 152
16 235 71 343 332 532 614 445z"/>
<path d="M19095 12774 c-153 -33 -301 -132 -368 -246 -58 -99 -72 -229 -37
-339 39 -123 128 -211 290 -286 300 -140 378 -182 413 -224 93 -107 61 -272
-68 -361 -130 -88 -323 -72 -444 38 -65 58 -95 120 -125 257 -6 26 -8 27 -75
27 l-69 0 4 -192 4 -193 87 -38 c149 -66 257 -89 413 -90 160 0 237 15 356 73
233 113 338 358 251 590 -26 69 -107 152 -198 203 -36 20 -143 70 -236 111
-232 101 -275 130 -308 208 -51 123 36 287 177 334 68 22 187 16 244 -14 74
-38 130 -120 159 -232 l11 -45 60 0 59 0 -3 165 c-3 131 -7 167 -19 177 -20
16 -195 70 -267 83 -83 14 -228 11 -311 -6z"/>
<path d="M10655 8644 c-179 -44 -356 -187 -443 -359 -88 -176 -92 -405 -9
-580 l34 -71 -253 -574 c-139 -316 -253 -587 -254 -602 0 -29 19 -53 50 -63
11 -3 20 -12 20 -18 0 -7 -65 -158 -144 -337 l-143 -325 -94 -17 c-768 -137
-1533 -56 -2109 223 -170 83 -309 172 -406 262 l-69 65 38 7 c55 11 244 -12
344 -41 162 -47 309 -131 435 -250 61 -58 91 -67 126 -36 10 9 83 167 162 351
160 376 156 359 101 477 -127 271 -473 515 -816 575 -108 19 -294 7 -390 -24
-175 -58 -274 -138 -374 -305 -216 -362 -354 -666 -428 -946 -25 -91 -27 -118
-27 -271 0 -156 2 -177 27 -258 65 -211 198 -404 386 -561 365 -305 941 -515
1548 -567 187 -15 621 -7 816 16 81 10 150 15 154 11 6 -5 -107 -265 -442
-1021 -79 -176 -161 -377 -183 -445 -76 -235 -115 -456 -127 -730 -7 -139 -6
-146 15 -173 15 -19 31 -27 53 -27 27 0 44 13 111 82 222 234 435 553 551 828
24 58 195 447 379 865 l335 760 223 52 c530 124 825 174 1023 174 189 0 455
-44 922 -153 205 -48 222 -53 233 -77 7 -14 169 -384 361 -821 378 -861 429
-971 521 -1124 112 -186 316 -449 427 -549 47 -42 88 -48 116 -17 16 18 17 36
12 207 -6 214 -34 397 -91 605 -44 160 -64 208 -398 963 -151 341 -274 621
-273 623 1 1 47 -4 101 -12 228 -34 346 -41 654 -41 321 0 415 7 640 46 378
65 805 228 1071 408 421 285 624 662 570 1063 -35 261 -208 678 -449 1080 -93
155 -148 209 -278 273 -122 60 -215 78 -374 72 -233 -9 -419 -78 -635 -234
-177 -128 -334 -346 -338 -468 -1 -32 273 -677 300 -707 29 -32 60 -21 139 48
141 123 287 203 446 245 90 24 262 42 318 34 l45 -7 -65 -60 c-178 -163 -473
-318 -783 -412 -541 -164 -1148 -188 -1787 -70 -74 14 -138 28 -142 32 -10 11
-278 624 -278 636 1 6 15 20 33 31 20 12 33 30 35 45 2 16 -93 244 -253 606
l-255 581 30 67 c49 107 63 185 57 311 -9 188 -65 313 -202 450 -138 138 -283
196 -484 194 -58 0 -133 -7 -166 -15z m300 -129 c222 -58 387 -243 417 -465
42 -320 -222 -619 -547 -620 -238 0 -460 173 -530 413 -19 65 -22 189 -6 258
66 292 381 488 666 414z m605 -1533 c117 -265 210 -485 208 -487 -3 -3 -106
-50 -229 -104 l-224 -98 -13 26 c-7 14 -100 224 -206 466 l-193 439 16 39 c16
37 21 41 92 61 101 29 176 68 252 131 60 50 62 51 73 31 6 -12 107 -238 224
-504z m-1162 466 c90 -69 193 -116 297 -136 47 -10 85 -20 85 -24 0 -17 -430
-983 -439 -986 -19 -6 -452 191 -449 204 4 17 432 994 436 994 1 0 33 -23 70
-52z m-3186 -252 c208 -40 417 -154 574 -312 78 -78 154 -198 154 -243 0 -13
-215 -528 -225 -539 -2 -2 -39 23 -82 55 -224 166 -466 239 -773 231 l-144 -3
-37 63 c-64 110 -84 188 -84 332 0 210 36 280 185 359 123 66 279 86 432 57z
m7622 -6 c91 -23 176 -66 233 -118 32 -29 46 -53 63 -107 56 -180 27 -378 -79
-544 l-31 -48 -48 8 c-76 13 -229 10 -332 -5 -209 -32 -379 -108 -590 -264
-16 -12 -27 10 -130 250 -63 145 -113 272 -112 282 3 45 66 149 136 223 245
260 613 394 890 323z m-3809 -580 c103 -234 193 -436 201 -448 13 -20 22 -23
61 -20 l46 3 50 -113 c28 -62 48 -115 44 -118 -3 -3 -51 2 -107 11 -138 21
-448 37 -595 30 -140 -7 -340 -31 -439 -51 -38 -8 -70 -13 -71 -12 -1 2 23 60
54 129 l56 126 36 -4 c20 -3 45 -1 55 5 12 7 89 171 214 455 107 245 198 442
202 439 4 -4 91 -198 193 -432z m-4530 -85 c53 -153 176 -326 323 -451 538
-460 1502 -668 2471 -533 79 11 145 18 148 16 2 -2 -92 -223 -209 -490 l-213
-485 -70 -11 c-328 -49 -809 -61 -1075 -28 -675 86 -1262 354 -1540 703 -70
87 -142 226 -170 324 -71 255 -6 550 222 1004 l71 141 13 -70 c6 -38 20 -92
29 -120z m8916 -45 c141 -307 200 -508 202 -685 0 -60 -5 -137 -12 -170 -66
-308 -320 -588 -713 -786 -483 -243 -1079 -352 -1698 -309 -376 26 -674 79
-1400 249 -839 196 -916 196 -1799 10 -156 -33 -285 -58 -286 -57 -2 3 431
988 437 993 6 6 241 56 335 71 64 11 190 18 363 21 370 7 509 -12 935 -129
454 -124 768 -174 1170 -185 1060 -29 1995 358 2269 938 35 72 76 210 76 253
0 31 43 -44 121 -214z m-5340 -216 c71 -31 129 -59 129 -61 0 -3 -31 -76 -69
-162 -156 -351 -615 -1396 -957 -2176 -201 -456 -401 -903 -445 -993 -104
-209 -243 -418 -387 -581 l-23 -26 6 75 c9 112 42 311 70 420 39 155 86 278
222 586 71 159 394 893 718 1631 325 738 594 1343 599 1343 5 0 66 -25 137
-56z m1779 -214 c65 -146 116 -266 115 -268 -2 -2 -79 17 -171 42 -92 25 -173
46 -180 46 -10 0 -154 309 -154 330 0 10 242 119 259 117 8 -1 63 -113 131
-267z m544 -1544 l149 -31 294 -665 c162 -366 312 -708 333 -760 84 -206 134
-428 164 -730 l6 -55 -36 40 c-119 131 -294 395 -384 580 -52 105 -730 1647
-730 1659 0 3 12 3 28 -1 15 -3 94 -20 176 -37z"/>
<path d="M6607 5723 c-4 -4 -5 -20 -2 -37 5 -27 -3 -42 -61 -114 -56 -70 -70
-82 -93 -80 -49 5 -27 -23 86 -113 l112 -89 36 47 c39 52 35 75 -10 55 -14 -7
-36 -12 -48 -12 -28 0 -67 26 -67 45 0 13 113 163 134 177 6 4 16 2 23 -3 14
-12 33 -4 33 14 0 19 -133 121 -143 110z"/>
<path d="M6952 5408 c-37 -34 -85 -79 -107 -100 -22 -21 -51 -39 -65 -41 -41
-6 -36 -34 10 -57 23 -12 48 -19 56 -16 17 7 18 33 2 39 -10 3 -10 7 0 20 13
15 17 15 53 -3 27 -14 39 -27 39 -41 0 -15 -5 -19 -15 -15 -8 3 -19 -2 -24
-13 -8 -15 1 -23 65 -54 65 -32 75 -35 81 -21 3 9 1 25 -5 35 -9 14 -9 50 -2
136 18 219 13 226 -88 131z m-2 -98 c0 -31 -13 -37 -39 -21 -12 8 -11 13 10
30 31 26 29 26 29 -9z"/>
<path d="M7230 5344 c0 -9 7 -22 15 -28 13 -10 11 -24 -21 -118 -32 -97 -38
-108 -60 -108 -16 0 -24 -6 -24 -18 0 -14 23 -25 98 -50 54 -18 114 -32 133
-32 67 0 102 75 63 135 -11 16 -12 25 -5 25 21 0 61 48 61 73 0 40 -50 76
-151 108 -109 34 -109 34 -109 13z m144 -70 c32 -12 11 -84 -24 -84 -23 0 -25
13 -9 59 12 34 11 33 33 25z m-26 -136 c18 -18 15 -53 -7 -79 -16 -20 -23 -22
-38 -13 -19 13 -20 34 -4 77 11 29 30 34 49 15z"/>
<path d="M7675 5200 c-59 -30 -79 -63 -83 -140 -2 -52 1 -72 17 -97 29 -47 93
-76 167 -77 52 -1 66 3 97 27 49 37 67 75 67 140 0 68 -28 113 -90 145 -56 28
-122 29 -175 2z m140 -45 c30 -29 33 -76 10 -153 -22 -73 -72 -95 -116 -51
-19 19 -21 29 -16 85 12 123 66 176 122 119z"/>
<path d="M8050 5156 c0 -10 9 -20 19 -23 26 -7 27 -12 21 -133 -5 -99 -6 -105
-27 -108 -14 -2 -23 -10 -23 -21 0 -15 11 -19 61 -25 102 -10 119 -8 119 13 0
10 -9 21 -21 24 -17 5 -20 12 -17 49 4 61 26 56 65 -17 18 -33 34 -63 35 -67
2 -3 29 -9 61 -13 53 -7 57 -6 57 13 0 11 -7 22 -15 26 -8 3 -31 30 -51 61
l-35 56 25 20 c19 15 26 30 26 54 0 77 -28 93 -184 101 -106 6 -116 6 -116
-10z m202 -61 c9 -19 8 -29 -6 -50 -9 -14 -25 -25 -36 -25 -17 0 -20 7 -20 50
0 47 2 50 25 50 17 0 29 -8 37 -25z"/>
<path d="M8548 5163 c-60 -3 -68 -6 -68 -23 0 -13 7 -20 19 -20 11 0 22 -3 24
-7 3 -5 8 -58 12 -119 7 -108 6 -112 -14 -119 -12 -3 -21 -13 -21 -22 0 -14
17 -15 147 -9 81 4 149 9 151 10 1 2 0 29 -4 60 -8 66 -24 73 -51 19 -17 -36
-21 -38 -63 -38 l-45 0 -3 48 c-3 42 -1 47 18 47 11 0 23 -7 26 -15 4 -8 15
-15 25 -15 15 0 19 7 19 39 0 69 -22 92 -48 51 -19 -31 -40 -24 -48 15 -9 51
0 65 40 65 27 0 40 -6 52 -25 9 -14 25 -25 36 -25 18 0 20 5 14 31 -3 17 -6
38 -6 45 0 14 -40 16 -212 7z"/>
<path d="M14895 5620 c-3 -5 10 -71 31 -145 24 -89 34 -146 30 -166 -8 -44 16
-47 64 -9 31 24 38 35 30 45 -6 7 -20 11 -30 8 -30 -8 -26 31 7 57 35 27 58
22 58 -12 1 -15 4 -30 7 -34 8 -7 138 85 138 97 0 12 -23 24 -40 21 -9 -1 -72
31 -140 73 -126 76 -144 83 -155 65z m120 -160 c3 -5 -3 -14 -14 -19 -20 -11
-31 2 -31 35 0 11 4 12 19 4 11 -5 23 -14 26 -20z"/>
<path d="M14642 5462 c-49 -25 -72 -42 -69 -52 2 -9 12 -14 25 -13 19 2 30
-13 75 -103 47 -95 50 -106 35 -115 -18 -10 -14 -39 6 -39 6 0 44 16 84 35 53
25 70 38 66 50 -3 8 -17 15 -30 15 -20 0 -32 15 -75 102 -46 91 -49 103 -35
114 15 11 13 45 -3 43 -3 0 -39 -17 -79 -37z"/>
<path d="M10690 5440 c0 -58 20 -68 42 -22 9 18 22 28 41 30 l27 3 0 -116 c0
-108 -1 -117 -20 -122 -11 -3 -20 -14 -20 -24 0 -17 9 -19 90 -19 83 0 90 1
90 20 0 13 -7 20 -19 20 -28 0 -32 22 -25 136 7 102 7 104 31 104 18 0 28 -8
36 -30 7 -18 19 -30 29 -30 15 0 18 9 18 50 l0 50 -160 0 -160 0 0 -50z"/>
<path d="M10380 5461 c-91 -13 -115 -19 -118 -33 -2 -11 5 -18 20 -20 21 -3
24 -11 39 -113 16 -106 16 -111 -2 -127 -29 -25 -25 -49 9 -43 34 7 243 35
254 35 10 0 10 91 0 107 -11 17 -30 2 -50 -38 -15 -29 -23 -34 -58 -37 -39 -3
-42 -1 -48 29 -11 57 -8 69 19 69 16 0 25 -6 25 -15 0 -9 9 -15 21 -15 19 0
21 4 15 38 -3 20 -6 47 -6 60 0 30 -28 28 -40 -3 -6 -15 -17 -25 -28 -25 -15
0 -21 10 -26 42 -5 29 -3 44 6 50 23 14 65 8 83 -12 10 -11 27 -20 37 -20 16
0 18 5 12 38 -11 61 7 57 -164 33z"/>
<path d="M11430 5419 c-63 -26 -103 -90 -103 -165 0 -61 24 -107 70 -135 35
-22 112 -30 151 -16 17 6 22 5 22 -7 0 -9 8 -16 19 -16 15 0 20 10 26 46 3 26
9 53 12 60 3 8 -2 17 -11 20 -12 4 -27 -6 -50 -31 -42 -49 -87 -53 -123 -10
-21 24 -24 35 -18 74 3 25 16 66 28 91 19 38 27 45 54 48 39 4 80 -32 89 -78
4 -20 12 -30 25 -30 14 0 19 11 25 56 5 43 3 58 -7 65 -8 4 -18 4 -23 -1 -5
-5 -20 0 -37 12 -32 24 -111 33 -149 17z"/>
<path d="M14340 5337 c-80 -28 -147 -52 -149 -53 -2 -2 2 -24 9 -49 9 -33 18
-45 31 -45 14 0 19 7 19 29 0 29 34 66 50 56 4 -2 24 -53 45 -111 34 -97 36
-109 21 -119 -15 -12 -23 -45 -10 -45 4 0 39 11 78 25 39 14 77 28 83 30 21 7
3 35 -22 35 -20 0 -28 13 -60 104 -20 58 -34 109 -30 115 11 18 53 12 68 -9 9
-13 20 -18 31 -14 20 8 19 19 -2 65 l-17 36 -145 -50z"/>
<path d="M11834 5311 c-17 -10 -41 -35 -54 -55 -31 -52 -26 -153 10 -192 78
-84 233 -85 292 -2 62 88 28 214 -68 254 -49 21 -142 18 -180 -5z m157 -42
c19 -19 21 -30 17 -83 -6 -73 -29 -122 -64 -138 -37 -17 -78 16 -82 67 -11
123 67 216 129 154z"/>
<path d="M12230 5255 c0 -9 9 -24 19 -33 18 -16 19 -21 6 -102 -20 -122 -23
-130 -44 -130 -10 0 -21 -9 -24 -19 -4 -17 4 -21 56 -30 47 -8 63 -8 69 2 12
19 10 24 -13 30 -20 5 -21 10 -15 60 15 120 13 120 96 -13 57 -91 80 -120 96
-120 18 0 22 9 33 83 22 154 31 186 52 192 28 9 25 45 -3 45 -13 0 -40 3 -60
6 -34 6 -38 4 -38 -14 0 -11 7 -22 15 -26 16 -6 19 -60 6 -106 -6 -23 -10 -20
-53 46 -25 39 -51 81 -57 92 -15 28 -35 38 -93 46 -41 6 -48 5 -48 -9z"/>
<path d="M14043 5247 c-41 -7 -53 -14 -53 -28 0 -11 9 -19 23 -21 18 -2 25
-13 35 -57 7 -29 11 -55 8 -58 -3 -3 -31 15 -63 39 -123 94 -117 91 -179 78
-43 -9 -54 -15 -52 -28 2 -9 13 -18 25 -20 25 -4 34 -29 55 -148 11 -69 11
-75 -7 -88 -10 -7 -16 -20 -12 -28 5 -13 14 -14 64 -4 64 13 84 39 39 50 -26
6 -35 28 -52 121 -6 34 -5 38 7 29 200 -155 250 -182 249 -135 -1 9 -12 68
-25 131 -23 109 -23 116 -7 130 16 14 19 52 4 49 -4 -1 -31 -6 -59 -12z"/>
<path d="M12719 5178 c-36 -29 -50 -89 -29 -128 6 -11 32 -34 58 -51 62 -42
74 -57 61 -80 -5 -11 -18 -19 -28 -19 -23 0 -71 54 -71 81 0 12 -7 19 -19 19
-19 0 -31 -34 -31 -91 0 -26 3 -29 28 -27 15 1 37 -4 49 -10 53 -29 125 -7
152 45 27 54 7 97 -69 150 -61 43 -74 78 -30 78 17 0 31 -10 45 -32 28 -44 55
-44 55 1 0 19 3 41 6 50 5 13 -2 16 -32 15 -22 0 -59 3 -84 6 -29 3 -51 1 -61
-7z"/>
<path d="M13527 5167 c-8 -7 -34 -72 -57 -145 -26 -85 -48 -137 -60 -144 -33
-21 -12 -38 46 -38 47 0 54 2 54 20 0 12 -7 20 -16 20 -10 0 -14 7 -12 23 2
18 10 23 45 25 34 3 44 -1 53 -17 9 -17 8 -21 -5 -21 -8 0 -15 -9 -15 -20 0
-22 23 -25 117 -14 55 7 60 21 21 54 -10 8 -44 70 -77 136 -33 67 -64 124 -69
128 -5 3 -16 0 -25 -7z m8 -167 c15 -30 15 -30 -11 -30 -20 0 -25 4 -20 16 3
9 6 22 6 30 0 22 8 17 25 -16z"/>
<path d="M13010 5110 c0 -41 3 -50 18 -50 10 0 22 12 29 30 9 25 17 30 43 30
31 0 32 -1 26 -31 -3 -17 -6 -69 -6 -115 0 -81 -1 -85 -25 -94 -14 -5 -25 -16
-25 -25 0 -12 17 -15 95 -15 73 0 95 3 95 13 0 8 -10 18 -22 24 -22 10 -23 14
-19 124 1 63 5 116 6 118 12 12 55 -12 61 -34 11 -43 40 -32 47 17 3 23 3 46
1 50 -3 4 -77 8 -165 8 l-159 0 0 -50z"/>
</g>
</svg>
