<svg width="196" height="533" viewBox="0 0 196 533" fill="none" xmlns="http://www.w3.org/2000/svg">
<path d="M1.36035 1.3501C49.4804 50.0601 89.2403 107.02 118.38 168.98C125.41 183.92 131.9 199.47 133.35 215.92C134.8 232.37 130.51 250.04 118.62 261.49C105.47 274.16 85.6004 277.08 67.4004 275.55C42.1004 273.42 14.7004 260.95 7.08035 236.73C2.09035 220.88 7.04035 202.9 17.6804 190.14C28.3204 177.38 44.0004 169.51 60.2304 166C97.6703 157.9 139.18 173.37 162.19 203.99C181.44 229.61 187.38 262.66 190.62 294.54C198.7 373.97 193.49 454.74 175.27 532.47" stroke="#191923" stroke-width="2" stroke-miterlimit="10"/>
</svg>
